PathFileType	4	(X/Y/Z)	C:/Users/beibeiliu/ov580/test_trc\sequence.12_training_dense_right.trc
DataRate	CameraRate	NumFrames	NumMarkers	Units	OrigDataRate	OrigDataStartFrame	OrigNumFrames
120	120	10	19	mm	120	203	324
Frame#	Time	ThumbCMC			ThumbMCP			ThumbIP			ThumbTip			IndexMCP			IndexPIP			IndexTip			MiddleMCP			MiddlePIP			MiddleTip			RingMCP			RingPIP			RingTip			PinkyMCP			PinkyPIP			PinkyTip			BackHand1			BackHand2			BackHand3	
		X0	Y0	Z0	X1	Y1	Z1	X2	Y2	Z2	X3	Y3	Z3	X4	Y4	Z4	X5	Y5	Z5	X6	Y6	Z6	X7	Y7	Z7	X8	Y8	Z8	X9	Y9	Z9	X10	Y10	Z10	X11	Y11	Z11	X12	Y12	Z12	X13	Y13	Z13	X14	Y14	Z14	X15	Y15	Z15	X16	Y16	Z16	X17	Y17	Z17	X18	Y18	Z18	
202	1.68333	267.81	1.61699	-0.181376	260.332	25.7676	8.35261	252.482	48.2839	7.39044	247.323	64.2137	7.64147	215.741	21.8016	-39.5708	195.923	34.2535	-41.3669	177.675	48.016	-40.936	199.298	-1.58837	-35.2158	173.293	5.98213	-41.6914	152.354	16.6989	-44.1082	190.548	-17.4224	-23.9635	167.185	-12.6014	-25.5623	150.665	-5.75143	-27.5585	189.073	-37.2067	-0.699742	171.752	-32.2726	0.00212456	153.49	-34.8058	3.1686	232.635	-39.0211	-15.736	250.705	-49.01	-4.93292	256.675	-21.7661	-18.7008	
203	1.69167	264.609	12.6957	-2.14087	254.084	33.6503	7.87747	239	50.9764	8.57592	234.747	68.6143	9.50048	206.88	21.5071	-37.3587	187.939	32.7061	-39.5553	165.03	46.0975	-36.6655	191.124	-4.76059	-35.6464	169.544	1.14817	-38.9587	143.125	5.3154	-38.7679	189.363	-23.095	-21.5373	165.084	-17.5317	-24.9785	145.149	-14.3318	-24.8195	189.036	-40.0577	-3.04354	171.807	-38.0561	0.617589	157.376	-42.3943	2.51095	233.981	-34.4541	-17.5353	257.968	-46.1092	-6.14407	255.536	-14.4732	-23.096	
204	1.7	260.844	15.5941	-1.22686	242.667	35.0685	7.654	229.919	53.9728	8.53976	223.084	67.656	11.4215	197.928	17.5343	-36.5903	177.184	29.2982	-36.4527	153.239	35.7615	-31.2486	188.183	-8.60065	-33.3521	164.44	-6.52719	-35.5688	139.043	-0.0585882	-36.8756	186.324	-23.8437	-23.1448	163.23	-24.9756	-22.2893	144.184	-18.5449	-24.763	194.108	-42.3827	-3.25637	176.054	-46.4224	3.7239	160.107	-49.3338	2.80542	234.366	-30.9659	-16.3794	257.67	-37.354	-9.85573	253.611	-9.15386	-22.6421	
205	1.70833	253.759	20.9882	-3.74972	239.238	40.7381	6.06239	221.72	54.3152	8.02407	208.635	66.8318	9.7431	191.75	16.3614	-35.3221	168.642	24.8426	-34.0467	151.52	29.8054	-29.5061	188.309	-10.9321	-31.526	162.475	-10.6681	-33.5985	132.387	-9.59078	-32.057	185.986	-29.1502	-22.1053	166.367	-26.8288	-22.66	145.249	-23.851	-22.2774	197.986	-41.8644	-4.60463	179.452	-48.7401	0.632852	161.172	-55.73	1.68092	233.337	-31.5196	-19.5388	260.961	-29.7114	-12.8422	249.983	-6.42515	-25.8536	
206	1.71667	247.485	25.0251	-7.91977	227.601	42.2784	3.98288	209.464	56.4675	6.67067	197.625	67.1828	9.48802	186.544	12.849	-35.9004	164.684	19.5322	-32.9339	142.149	23.2061	-25.4426	186.152	-12.9984	-32.9612	159.728	-16.4397	-33.3011	131.551	-14.6262	-30.1386	189.088	-29.6953	-21.7398	161.858	-32.3976	-21.7636	140.172	-32.8405	-20.5391	198.344	-43.6383	-5.43973	177.825	-50.5769	-2.83741	164.406	-58.783	-0.77778	232.751	-25.0088	-21.5729	256.08	-27.7531	-14.1499	245.101	-3.60272	-26.3314	
207	1.725	244.275	27.0235	-9.25806	219.845	40.0547	1.81635	201.245	54.9925	4.83983	188.648	63.638	9.42183	181.41	11.3824	-36.9871	158.123	11.4543	-32.399	139.017	15.8968	-23.4012	177.732	-16.0275	-33.9322	156.853	-20.5672	-32.9515	127.55	-20.0664	-27.7845	188.302	-30.9046	-22.0631	159.736	-36.2557	-22.2848	142.797	-37.1561	-20.8825	198.887	-43.051	-7.27309	179.747	-55.6233	-3.49916	164.508	-61.1773	-6.00593	231.766	-25.018	-22.9962	259.028	-26.078	-15.6999	244.862	-1.32384	-29.4785	
208	1.73333	235.676	29.1198	-11.5564	214.165	41.3514	1.33033	190.859	48.6815	4.74748	174.434	59.2786	8.14724	177.978	7.10236	-38.1259	155.576	6.71775	-34.0738	128.963	6.87982	-21.2883	175.256	-18.9685	-35.2237	153.428	-27.8831	-32.4322	127.73	-30.3141	-24.6967	185.757	-32.053	-25.3583	164.232	-37.4137	-24.7816	141.618	-42.8536	-21.898	194.92	-46.8296	-11.0678	183.401	-56.4048	-8.62496	166.075	-63.1537	-12.5361	229.036	-22.6296	-22.9595	253.281	-21.0848	-20.0576	235.856	-0.890071	-31.8187	
209	1.74167	229.149	31.2948	-12.3839	203.609	37.1912	1.02482	184.117	42.1804	5.53327	164.508	50.7074	9.95806	175.257	1.17131	-37.6075	149.782	-4.45603	-31.7854	130.069	-6.4964	-22.7291	176.757	-25.1037	-33.8355	151.199	-35.2774	-31.7699	125.289	-36.2514	-23.1831	185	-36.7652	-26.9478	158.906	-47.8829	-25.4926	137.815	-52.276	-22.5928	197.287	-48.0798	-14.0414	179.849	-59.2543	-15.3845	167.257	-67.9336	-18.1821	226.535	-27.2433	-23.328	251.847	-20.1251	-18.5752	232.817	-1.62334	-31.296	
210	1.75	224.934	25.7158	-12.7759	196.115	30.1377	0.32104	174.826	33.8354	6.34	161.343	40.47	11.9859	169.178	-6.85842	-37.4726	149.609	-14.5916	-32.3039	123.757	-17.2106	-22.3019	172.946	-33.633	-34.7735	149.115	-39.665	-33.5787	128.062	-47.2061	-21.6124	188.677	-41.7128	-26.6062	162.648	-51.3298	-27.6491	142.849	-57.2022	-25.445	204.416	-50.0279	-13.3008	185.807	-61.9721	-16.744	170.165	-72.0519	-19.4058	227.365	-23.3402	-24.3565	253.632	-15.3129	-21.7089	231.59	1.11897	-33.5457	
211	1.75833	215.81	28.3658	-12.676	192.487	32.3746	1.51217	168.656	31.0645	7.19855	151.13	32.2136	13.8827	166.312	-14.9976	-36.423	146.507	-23.7651	-32.0011	123.707	-30.5593	-20.591	177.14	-36.15	-35.7026	154.926	-49.7465	-32.3049	131.812	-59.3248	-20.2076	187.999	-46.8526	-28.1302	169.039	-62.7968	-27.5267	149.225	-70.9422	-22.7472	207.226	-55.0828	-15.0517	194.296	-64.3726	-17.908	176.22	-80.8573	-19.3958	226.438	-24.7205	-26.0684	252.322	-13.9446	-19.0786	227.518	-0.931046	-34.118	
